<?xml version="1.0" encoding="UTF-8" standalone="no"?>
<svg
   version="1.1"
   width="301"
   height="301"
   viewBox="0 0 301 301"
   xml:space="preserve"
   id="svg32"
   sodipodi:docname="logo-light.svg"
   inkscape:version="1.1.1 (3bf5ae0d25, 2021-09-20)"
   xmlns:inkscape="http://www.inkscape.org/namespaces/inkscape"
   xmlns:sodipodi="http://sodipodi.sourceforge.net/DTD/sodipodi-0.dtd"
   xmlns:xlink="http://www.w3.org/1999/xlink"
   xmlns="http://www.w3.org/2000/svg"
   xmlns:svg="http://www.w3.org/2000/svg"><sodipodi:namedview
   id="namedview34"
   pagecolor="#ffffff"
   bordercolor="#666666"
   borderopacity="1.0"
   inkscape:pageshadow="2"
   inkscape:pageopacity="0.0"
   inkscape:pagecheckerboard="0"
   showgrid="false"
   inkscape:zoom="2.6943522"
   inkscape:cx="150.68557"
   inkscape:cy="150.5"
   inkscape:window-width="3440"
   inkscape:window-height="1369"
   inkscape:window-x="1072"
   inkscape:window-y="655"
   inkscape:window-maximized="1"
   inkscape:current-layer="svg32"
   showguides="true"
   inkscape:guide-bbox="true" />
<desc
   id="desc2">Created with Fabric.js 4.6.0</desc>
<defs
   id="defs4"><linearGradient
   inkscape:collect="always"
   xlink:href="#0a8ec2f5-8e4c-49ea-94d9-1aa2e987f009"
   id="linearGradient28185"
   gradientTransform="scale(0.95097465,1.0515527)"
   x1="5.2346296"
   y1="8.1175194"
   x2="228.71272"
   y2="8.1175194"
   gradientUnits="userSpaceOnUse" /><linearGradient
   data-v-fde0c5aa=""
   gradientTransform="rotate(25)"
   id="0a8ec2f5-8e4c-49ea-94d9-1aa2e987f009"
   x1="0"
   y1="0"
   x2="1"
   y2="0"><stop
     data-v-fde0c5aa=""
     offset="0%"
     stop-color="#EA1F59"
     stop-opacity="1"
     id="stop11" /><stop
     data-v-fde0c5aa=""
     offset="100%"
     stop-color="#FA9169"
     stop-opacity="1"
     id="stop13" /></linearGradient><linearGradient
   inkscape:collect="always"
   xlink:href="#0a8ec2f5-8e4c-49ea-94d9-1aa2e987f009"
   id="linearGradient201"
   gradientUnits="userSpaceOnUse"
   gradientTransform="scale(0.95097465,1.0515527)"
   x1="5.2346296"
   y1="8.1175194"
   x2="228.71272"
   y2="8.1175194" />
		
		
		
		


</defs>
<g
   id="Bghv5Sekbh3Ygi8Nycajl"
   transform="translate(150.76,150.76)">
<path
   style="opacity:1;fill:#ffffff;fill-opacity:0;fill-rule:nonzero;stroke:none;stroke-width:1;stroke-linecap:butt;stroke-linejoin:miter;stroke-miterlimit:4;stroke-dasharray:none;stroke-dashoffset:0"
   vector-effect="non-scaling-stroke"
   transform="translate(-150,-150)"
   d="M 0,300 V 0 h 300 v 300 z"
   stroke-linecap="round"
   id="path6" />
</g><g
   transform="matrix(6.51,0,0,6.51,150.76,203.42)"
   id="LH8zhXK18Vo-byUnw8_9J">
<path
   style="opacity:1;fill:#000000;fill-rule:nonzero;stroke:none;stroke-width:1;stroke-linecap:butt;stroke-linejoin:miter;stroke-miterlimit:4;stroke-dasharray:none;stroke-dashoffset:0"
   vector-effect="non-scaling-stroke"
   transform="translate(-22.96,-9.13)"
   d="m 1.79,13.02 v 0 H 1.16 v 0 q -0.19,0 -0.19,-0.2 v 0 -6.74 0 q 0,-0.2 0.19,-0.2 v 0 h 0.63 v 0 q 0.2,0 0.2,0.2 v 0 0.54 h 0.05 v 0 Q 2.44,5.88 3.53,5.88 v 0 h 0.52 v 0 q 1.23,0 1.7,0.95 v 0 0 Q 5.98,6.37 6.46,6.12 v 0 0 Q 6.94,5.88 7.48,5.88 v 0 h 0.49 v 0 q 0.95,0 1.48,0.55 v 0 0 q 0.53,0.54 0.53,1.52 v 0 4.87 0 q 0,0.2 -0.19,0.2 v 0 H 9.16 v 0 q -0.2,0 -0.2,-0.2 v 0 -4.83 0 q 0,-1.21 -1.18,-1.21 v 0 H 7.32 v 0 q -0.63,0 -0.97,0.35 v 0 0 Q 6.01,7.49 6.01,8.11 v 0 4.71 0 q 0,0.2 -0.2,0.2 v 0 H 5.18 v 0 q -0.2,0 -0.2,-0.2 v 0 -4.83 0 q 0,-1.21 -1.17,-1.21 v 0 H 3.29 v 0 q -0.63,0 -0.97,0.33 v 0 0 Q 1.99,7.45 1.99,8.06 v 0 4.76 0 q 0,0.2 -0.2,0.2 z m 13.19,0 v 0 h -1.2 v 0 q -0.97,0 -1.52,-0.55 v 0 0 Q 11.7,11.93 11.7,10.95 v 0 -3 0 q 0,-0.98 0.56,-1.52 v 0 0 q 0.55,-0.55 1.52,-0.55 v 0 h 1.2 v 0 q 0.97,0 1.52,0.55 v 0 0 q 0.55,0.54 0.55,1.52 v 0 3 0 q 0,0.98 -0.55,1.52 v 0 0 q -0.55,0.55 -1.52,0.55 z m -1.09,-0.9 v 0 h 0.98 v 0 q 1.17,0 1.17,-1.2 v 0 -2.94 0 q 0,-1.2 -1.17,-1.2 v 0 h -0.98 v 0 q -1.18,0 -1.18,1.2 v 0 2.94 0 q 0,1.2 1.18,1.2 z m 6.12,0 v 0 h 1.98 v 0 q 1.19,0 1.19,-1.21 v 0 -3 0 q 0,-1.22 -1.19,-1.22 v 0 h -0.82 v 0 q -0.63,0 -0.97,0.34 v 0 0 q -0.33,0.33 -0.33,0.94 v 0 4.03 0 q 0,0.12 0.14,0.12 z m -1.17,0.7 v 0 -9.45 0 q 0,-0.19 0.2,-0.19 v 0 h 0.63 v 0 q 0.2,0 0.2,0.19 v 0 3.17 h 0.05 v 0 Q 20.27,5.8 21.35,5.8 v 0 h 0.78 v 0 q 0.96,0 1.51,0.54 v 0 0 q 0.55,0.55 0.55,1.51 v 0 3.1 0 q 0,0.98 -0.55,1.52 v 0 0 q -0.55,0.55 -1.51,0.55 v 0 h -3.09 v 0 q -0.2,0 -0.2,-0.2 z M 26.05,4.7 v 0 -1.31 0 q 0,-0.2 0.19,-0.2 v 0 h 0.64 v 0 q 0.2,0 0.2,0.2 v 0 1.31 0 q 0,0.2 -0.2,0.2 v 0 h -0.64 v 0 q -0.19,0 -0.19,-0.2 z M 25,15.09 v 0 h -0.57 v 0 q -0.2,0 -0.2,-0.19 v 0 -0.52 0 q 0,-0.2 0.2,-0.2 v 0 h 0.32 v 0 q 1.3,0 1.3,-1.31 v 0 -6.79 0 q 0,-0.2 0.2,-0.2 v 0 h 0.63 v 0 q 0.2,0 0.2,0.2 v 0 6.93 0 q 0,0.96 -0.56,1.52 v 0 0 Q 25.97,15.09 25,15.09 Z m 8.98,-2.07 v 0 h -2.97 v 0 q -0.97,0 -1.52,-0.55 v 0 0 q -0.55,-0.54 -0.55,-1.52 v 0 -3 0 q 0,-0.98 0.55,-1.52 v 0 0 q 0.55,-0.55 1.52,-0.55 v 0 h 1.18 v 0 q 0.96,0 1.51,0.55 v 0 0 q 0.54,0.54 0.54,1.52 v 0 1.78 0 q 0,0.21 -0.19,0.21 v 0 h -3.96 v 0 q -0.14,0 -0.14,0.13 v 0 0.85 0 q 0,1.22 1.17,1.22 v 0 h 2.86 v 0 q 0.19,0 0.19,0.19 v 0 0.51 0 q 0,0.18 -0.19,0.18 z M 30.09,9.2 v 0 h 3.02 v 0 q 0.14,0 0.14,-0.14 v 0 -1.08 0 q 0,-1.2 -1.18,-1.2 v 0 h -0.95 v 0 q -1.17,0 -1.17,1.2 v 0 1.08 0 q 0,0.14 0.14,0.14 z m 10.03,3.12 v 0 0.52 0 q 0,0.18 -0.19,0.18 v 0 H 37.9 v 0 q -0.97,0 -1.52,-0.55 v 0 0 q -0.55,-0.54 -0.55,-1.52 v 0 -3 0 q 0,-0.98 0.55,-1.52 v 0 0 Q 36.93,5.88 37.9,5.88 v 0 h 2.03 v 0 q 0.19,0 0.19,0.2 v 0 0.51 0 q 0,0.19 -0.19,0.19 v 0 h -1.92 v 0 q -1.16,0 -1.16,1.21 v 0 2.92 0 q 0,1.21 1.16,1.21 v 0 h 1.92 v 0 q 0.19,0 0.19,0.2 z m 1.7,-5.54 v 0 h -0.77 v 0 q -0.2,0 -0.2,-0.19 v 0 -0.51 0 q 0,-0.2 0.2,-0.2 v 0 h 0.77 v 0 q 0.14,0 0.14,-0.13 v 0 -1.2 0 q 0,-0.2 0.19,-0.2 v 0 h 0.63 v 0 q 0.19,0 0.19,0.2 v 0 1.2 0 q 0,0.13 0.15,0.13 v 0 h 1.48 v 0 q 0.21,0 0.21,0.2 v 0 0.51 0 q 0,0.19 -0.21,0.19 v 0 h -1.48 v 0 q -0.15,0 -0.15,0.12 v 0 4.03 0 q 0,1.19 1.23,1.19 v 0 h 0.54 v 0 q 0.21,0 0.21,0.2 v 0 0.52 0 q 0,0.18 -0.21,0.18 v 0 h -0.67 v 0 q -0.96,0 -1.54,-0.54 v 0 0 q -0.57,-0.54 -0.57,-1.5 v 0 -4.08 0 q 0,-0.12 -0.14,-0.12 z"
   stroke-linecap="round"
   id="path9" />
</g><g
   transform="matrix(0.9,0,0,0.9,150.76,256.48)"
   id="xWT52g9-ZQCoX89_BtcFI">
<path
   style="opacity:1;fill:#000000;fill-rule:nonzero;stroke:none;stroke-width:1;stroke-linecap:butt;stroke-linejoin:miter;stroke-miterlimit:4;stroke-dasharray:none;stroke-dashoffset:0"
   vector-effect="non-scaling-stroke"
   transform="translate(-119.61,-6.85)"
   d="m 5.25,2.1 c -2.81,0 -4.7,2.11 -4.7,4.75 0,2.63 1.89,4.74 4.7,4.74 2.81,0 4.7,-2.11 4.7,-4.74 C 9.95,4.21 8.06,2.1 5.25,2.1 Z m 0,8.47 C 3,10.57 1.6,8.93 1.6,6.85 1.6,4.76 3,3.12 5.25,3.12 7.5,3.12 8.9,4.76 8.9,6.85 8.9,8.93 7.5,10.57 5.25,10.57 Z M 22.75,2.1 c -2.81,0 -4.7,2.11 -4.7,4.75 0,2.63 1.89,4.74 4.7,4.74 2.81,0 4.7,-2.11 4.7,-4.74 0,-2.64 -1.89,-4.75 -4.7,-4.75 z m 0,8.47 c -2.25,0 -3.65,-1.64 -3.65,-3.72 0,-2.09 1.4,-3.73 3.65,-3.73 2.25,0 3.65,1.64 3.65,3.73 0,2.08 -1.4,3.72 -3.65,3.72 z M 37.18,8.18 h 3.13 c 1.97,0 3.19,-1.15 3.19,-2.99 0,-1.82 -1.22,-2.98 -3.19,-2.98 h -4.18 v 9.27 h 1.05 z m 3.06,-4.97 c 1.45,0 2.21,0.75 2.21,1.98 0,1.25 -0.76,2.01 -2.21,2.01 H 37.18 V 3.21 Z M 68.6,3.22 V 2.21 h -6.69 v 9.27 h 1.05 V 7.46 h 5.02 V 6.44 H 62.96 V 3.22 Z M 81.19,2.1 c -2.82,0 -4.71,2.11 -4.71,4.75 0,2.63 1.89,4.74 4.71,4.74 2.81,0 4.7,-2.11 4.7,-4.74 C 85.89,4.21 84,2.1 81.19,2.1 Z m 0,8.47 c -2.26,0 -3.66,-1.64 -3.66,-3.72 0,-2.09 1.4,-3.73 3.66,-3.73 2.25,0 3.65,1.64 3.65,3.73 0,2.08 -1.4,3.72 -3.65,3.72 z M 95.62,7.92 h 3.22 l 2.24,3.56 h 1.25 L 99.89,7.74 c 1.04,-0.24 2.24,-0.84 2.24,-2.63 0,-1.76 -1.22,-2.9 -3.12,-2.9 h -4.44 v 9.27 h 1.05 z m 0,-4.71 h 3.26 c 1.32,0 2.2,0.72 2.2,1.9 0,1.44 -1.26,1.82 -2.25,1.82 h -3.21 z m 33.1,-1 -3.27,4.4 -3.31,-4.4 h -1.22 v 9.27 h 1.05 V 3.81 l 3.48,4.41 3.43,-4.41 v 7.67 h 1.05 V 2.21 Z m 14.64,0 h -1.32 l -3.93,9.27 h 1.16 l 1.14,-2.69 H 145 l 1.13,2.69 h 1.16 z m -2.55,5.62 1.89,-4.53 1.89,4.53 z m 18.45,2.74 c -2.25,0 -3.51,-1.64 -3.51,-3.72 0,-2.09 1.26,-3.73 3.51,-3.73 1.53,0 2.54,0.73 3.01,1.86 h 1.11 c -0.59,-1.69 -2.1,-2.88 -4.2,-2.88 -2.79,0 -4.48,2.11 -4.48,4.75 0,2.63 1.69,4.74 4.48,4.74 2.1,0 3.61,-1.19 4.2,-2.88 h -1.11 c -0.47,1.13 -1.48,1.86 -3.01,1.86 z M 178.39,2.21 V 6.33 H 173 V 2.21 h -1.05 v 9.27 H 173 V 7.35 h 5.39 v 4.13 h 1.05 V 2.21 Z m 11.37,0 h -1.05 v 9.27 h 1.05 z m 16.21,0 v 7.8 l -5.73,-7.8 h -1.22 v 9.27 h 1.05 V 3.65 l 5.73,7.83 h 1.22 V 2.21 Z M 223.1,3.22 V 2.21 h -6.81 v 9.27 h 6.81 v -1.01 h -5.76 V 7.35 h 5.15 V 6.33 h -5.15 V 3.22 Z m 9.2,1.43 c 0,-0.62 0.37,-1.57 2.47,-1.57 1.69,0 2.47,0.74 2.59,1.67 h 1.07 c -0.08,-1.39 -1.2,-2.65 -3.66,-2.65 -2.33,0 -3.49,1.05 -3.49,2.56 0,3.18 6.34,2.03 6.34,4.3 0,1.09 -0.98,1.64 -2.55,1.64 -1.61,0 -2.91,-0.55 -2.98,-1.89 H 231 c 0.14,1.66 1.26,2.88 4,2.88 2.29,0 3.67,-0.95 3.67,-2.67 0,-3.24 -6.37,-2.12 -6.37,-4.27 z"
   stroke-linecap="round"
   id="path20" />
</g>

<g
   data-v-fde0c5aa=""
   id="d198cab2-8cfc-4285-8167-c466766b5eca"
   stroke="none"
   fill="url(#0a8ec2f5-8e4c-49ea-94d9-1aa2e987f009)"
   transform="matrix(0.44999998,0,0,0.44999998,100.702,36.982)"
   style="fill:url(#linearGradient28185)"><path
     d="M 113.793,8.536 4.978,66.264 V 185.806 L 111.75,243.535 217.5,185.806 V 66.264 Z M 98.467,190.569 50.446,164.209 V 89.046 L 98.467,117.35 Z M 109.58488,103.23669 67.931491,79.310509 114.248,56.229 156.285,79.897 Z M 173.055,162.006 116.645,191.381 V 117.35 L 144.62135,103.62058 173.055,89.339 Z"
     id="path18"
     sodipodi:nodetypes="ccccccccccccccccccccccc"
     style="fill:url(#linearGradient201)" /></g></svg>
